# xmcd
#
# Track frame offsets:
#	150
#	24187
#	45138
#	67273
#	86698
#	112915
#	134653
#	157547
#	174116
#	194823
#	214750
#	242291
#	262079
#
# Disc length: 3598 seconds
#
# Revision: 18
# Processed by: cddbd v1.5.2PL0 Copyright (c) Steve Scherf et al.
# Submitted via: Jack! The Knife 20 Magnifico
#
DISCID=a50e0c0d
DTITLE=Yngwie Malmsteen - Facing The Animal
DYEAR=1997
DGENRE=Metal
TTITLE0=Braveheart
TTITLE1=Facing The Animal
TTITLE2=Enemy
TTITLE3=Sacrifice
TTITLE4=Like An Angel
TTITLE5=My Resurrection
TTITLE6=Another Time
TTITLE7=Heathens From The North
TTITLE8=Alone In Paradise
TTITLE9=End Of My Rope
TTITLE10=Only The Strong
TTITLE11=Poison In Your Veins
TTITLE12=Air On A Theme
EXTD=Yngwie Malmsteen and Chris Tsangarides
EXTT0=Yngwie Malmsteen
EXTT1=Yngwie Malmsteen
EXTT2=Yngwie Malmsteen
EXTT3=Yngwie Malmsteen
EXTT4=Yngwie Malmsteen
EXTT5=Yngwie Malmsteen
EXTT6=Yngwie Malmsteen
EXTT7=Yngwie Malmsteen
EXTT8=Yngwie Malmsteen
EXTT9=Yngwie Malmsteen
EXTT10=Yngwie Malmsteen
EXTT11=Yngwie Malmsteen
EXTT12=Yngwie Malmsteen
PLAYORDER=
